<svg width="36" height="40" viewBox="0 0 36 40" fill="none" xmlns="http://www.w3.org/2000/svg">
<path d="M18 6.33441L18 1.33334" stroke="white" stroke-linecap="round"/>
<path d="M29.2524 11.2524L33.5835 8.75189" stroke="white" stroke-linecap="round"/>
<path d="M30.5026 21.3376L35.3333 22.632" stroke="white" stroke-linecap="round"/>
<path d="M0.666654 22.632L5.49731 21.3376" stroke="white" stroke-linecap="round"/>
<path d="M2.41651 8.75188L6.74756 11.2524" stroke="white" stroke-linecap="round"/>
<path d="M23.7204 27.3207C22.5161 29.719 23.7204 30.9181 22.5161 32.1173C21.3118 33.3164 20.012 33.2597 18.301 33.3164C16.363 33.3808 14.6881 33.3164 13.4838 32.1173C12.2795 30.9181 13.4838 29.719 12.2795 27.3207C11.0752 24.9224 8.66663 21.6846 8.66663 18.327C8.66663 14.13 12.2795 9.33334 18.301 9.33334C24.3225 9.33334 27.3333 14.7295 27.3333 18.327C27.3333 21.205 24.9247 24.9224 23.7204 27.3207Z" stroke="white"/>
<path d="M14 36H22" stroke="white" stroke-linecap="round"/>
<path d="M15.3333 38.6667H20.6666" stroke="white" stroke-linecap="round"/>
</svg>
