<svg width="34" height="35" viewBox="0 0 34 35" fill="none" xmlns="http://www.w3.org/2000/svg">
<path d="M14.1064 4.94688C14.106 9.73939 21.5431 14.6338 21.5431 14.6338C21.5431 14.6338 28.9797 9.73939 28.9797 4.94688C28.9797 2.79423 27.4041 1.00035 25.4386 1.00035C23.314 1.00036 21.5431 3.51178 21.5431 3.51178C21.5431 3.51178 20.153 1.02989 18.0018 1.00035C15.8507 0.970823 14.1066 2.79423 14.1064 4.94688Z" stroke="white" stroke-linecap="round" stroke-linejoin="round"/>
<path d="M4.604 25.3756C6.25659 23.4476 9.9749 19.5089 11.6275 19.1784C13.6932 18.7653 16.9984 20.0047 19.8904 20.0047C22.7824 20.0047 25.2613 20.0047 24.8481 21.6573C24.435 23.3099 20.3035 23.3099 16.5852 22.8967C15.9261 22.8235 14.9326 22.8967 14.1064 23.3099" stroke="white" stroke-linecap="round" stroke-linejoin="round"/>
<path d="M24.8481 20.831C26.6384 19.4538 30.3842 16.6169 31.0452 16.2864C31.8715 15.8732 33.111 15.8732 33.111 17.1127C33.111 18.3521 26.7979 26.8404 22.6664 27.6667C18.535 28.4929 15.1624 27.0911 13.1045 28.3333C12.0001 29 11.2176 29.7825 10.6667 30.3333" stroke="white" stroke-linecap="round" stroke-linejoin="round"/>
<rect x="3.33313" y="24.2" width="10.6667" height="2.67207" transform="rotate(45 3.33313 24.2)" stroke="white" stroke-linecap="round" stroke-linejoin="round"/>
</svg>
